<svg width="20" height="20" viewBox="0 0 20 20" fill="none" xmlns="http://www.w3.org/2000/svg">
<path d="M11.2812 9.85642C11.2812 12.9987 8.75578 15.546 5.6407 15.546C2.52561 15.546 0 12.9981 0 9.85642C0 6.71473 2.52542 4.16666 5.6407 4.16666C8.75598 4.16666 11.2812 6.71415 11.2812 9.85642Z" fill="#1F2A37"/>
<path d="M17.4688 9.85642C17.4688 12.8142 16.2061 15.2129 14.6485 15.2129C13.0908 15.2129 11.8281 12.8142 11.8281 9.85642C11.8281 6.89866 13.0906 4.49996 14.6483 4.49996C16.2059 4.49996 17.4686 6.89789 17.4686 9.85642" fill="#111928"/>
<path d="M19.9998 9.85641C19.9998 12.5058 19.5557 14.655 19.0078 14.655C18.4599 14.655 18.0161 12.5064 18.0161 9.85641C18.0161 7.2064 18.4601 5.05787 19.0078 5.05787C19.5555 5.05787 19.9998 7.20621 19.9998 9.85641Z" fill="#111928"/>
</svg>
