<svg width="48" height="48" viewBox="0 0 48 48" fill="none" xmlns="http://www.w3.org/2000/svg">
<path d="M16 32L21.758 26.242M21.758 26.242C22.3134 26.8067 22.9751 27.2558 23.705 27.5634C24.4348 27.8711 25.2184 28.0312 26.0104 28.0345C26.8024 28.0378 27.5873 27.8843 28.3197 27.5828C29.0521 27.2812 29.7176 26.8377 30.2777 26.2777C30.8378 25.7177 31.2815 25.0523 31.5832 24.32C31.8849 23.5877 32.0386 22.8029 32.0355 22.0108C32.0324 21.2188 31.8724 20.4352 31.565 19.7053C31.2575 18.9754 30.8085 18.3135 30.244 17.758C29.1158 16.6478 27.5946 16.0283 26.0118 16.0346C24.429 16.0409 22.9128 16.6723 21.7934 17.7914C20.674 18.9105 20.0422 20.4266 20.0356 22.0094C20.029 23.5922 20.648 25.1136 21.758 26.242ZM42 24C42 26.3638 41.5344 28.7044 40.6298 30.8883C39.7252 33.0722 38.3994 35.0565 36.7279 36.7279C35.0565 38.3994 33.0722 39.7252 30.8883 40.6298C28.7044 41.5344 26.3638 42 24 42C21.6362 42 19.2956 41.5344 17.1117 40.6298C14.9278 39.7252 12.9435 38.3994 11.2721 36.7279C9.60062 35.0565 8.27475 33.0722 7.37017 30.8883C6.46558 28.7044 6 26.3638 6 24C6 19.2261 7.89642 14.6477 11.2721 11.2721C14.6477 7.89642 19.2261 6 24 6C28.7739 6 33.3523 7.89642 36.7279 11.2721C40.1036 14.6477 42 19.2261 42 24Z" stroke="white" stroke-width="2" stroke-linecap="round" stroke-linejoin="round"/>
</svg>
