<svg width="48" height="48" viewBox="0 0 48 48" fill="none" xmlns="http://www.w3.org/2000/svg">
<path fill-rule="evenodd" clip-rule="evenodd" d="M35.6 39.634L31.256 41.91C30.9931 42.0468 30.6755 42.0237 30.4352 41.8502C30.1949 41.6767 30.0729 41.3826 30.12 41.09L30.95 36.268L27.436 32.854C27.222 32.6471 27.1448 32.3362 27.2371 32.0532C27.3295 31.7703 27.5752 31.5648 27.87 31.524L32.726 30.82L34.898 26.434C35.0305 26.1675 35.3024 25.999 35.6 25.999C35.8976 25.999 36.1695 26.1675 36.302 26.434L38.474 30.82L43.33 31.524C43.6239 31.5662 43.8683 31.7717 43.9605 32.054C44.0526 32.3363 43.9764 32.6464 43.764 32.854L40.25 36.268L41.078 41.088C41.1287 41.3812 41.0081 41.6777 40.7672 41.8524C40.5262 42.027 40.2069 42.0494 39.944 41.91L35.6 39.634V39.634Z" stroke="white" stroke-width="1.5" stroke-linecap="round" stroke-linejoin="round"/>
<path fill-rule="evenodd" clip-rule="evenodd" d="M12.3998 39.634L8.05582 41.91C7.79291 42.0468 7.47531 42.0237 7.235 41.8502C6.99468 41.6767 6.87273 41.3826 6.91982 41.09L7.74982 36.268L4.23582 32.854C4.02181 32.6471 3.9446 32.3362 4.03694 32.0532C4.12928 31.7703 4.37498 31.5648 4.66982 31.524L9.52582 30.82L11.6978 26.434C11.8303 26.1675 12.1022 25.999 12.3998 25.999C12.6974 25.999 12.9693 26.1675 13.1018 26.434L15.2738 30.82L20.1298 31.524C20.4237 31.5662 20.6682 31.7717 20.7603 32.054C20.8524 32.3363 20.7762 32.6464 20.5638 32.854L17.0498 36.268L17.8778 41.088C17.9285 41.3812 17.8079 41.6777 17.567 41.8524C17.3261 42.027 17.0067 42.0494 16.7438 41.91L12.3998 39.634V39.634Z" stroke="white" stroke-width="1.5" stroke-linecap="round" stroke-linejoin="round"/>
<path fill-rule="evenodd" clip-rule="evenodd" d="M23.9999 19.634L19.6559 21.91C19.393 22.0468 19.0754 22.0237 18.8351 21.8502C18.5948 21.6767 18.4728 21.3826 18.5199 21.09L19.3499 16.268L15.8359 12.854C15.6219 12.6471 15.5447 12.3362 15.637 12.0532C15.7294 11.7703 15.9751 11.5648 16.2699 11.524L21.1259 10.82L23.2979 6.43395C23.4304 6.1675 23.7023 5.99902 23.9999 5.99902C24.2975 5.99902 24.5694 6.1675 24.7019 6.43395L26.8739 10.82L31.7299 11.524C32.0238 11.5662 32.2683 11.7717 32.3604 12.054C32.4525 12.3363 32.3763 12.6464 32.1639 12.854L28.6499 16.268L29.4779 21.088C29.5286 21.3812 29.408 21.6777 29.1671 21.8524C28.9262 22.027 28.6068 22.0494 28.3439 21.91L23.9999 19.634V19.634Z" stroke="white" stroke-width="1.5" stroke-linecap="round" stroke-linejoin="round"/>
</svg>
