<svg width="504" height="144" viewBox="0 0 504 144" fill="none" xmlns="http://www.w3.org/2000/svg">
<path d="M451.755 104.816C451.755 111.608 450.71 117.442 448.62 122.318C446.531 127.369 443.831 131.461 440.522 134.596C437.214 137.905 433.469 140.256 429.29 141.649C424.936 143.216 420.669 144 416.49 144L416.49 134.857C421.018 134.857 425.284 133.29 429.29 130.155C433.121 127.195 435.385 123.102 436.082 117.878C435.559 118.052 434.95 118.226 434.253 118.4C433.731 118.574 433.121 118.748 432.424 118.922C431.554 119.097 430.596 119.184 429.551 119.184C424.327 119.184 419.973 117.181 416.49 113.176C413.007 109.344 411.265 104.816 411.265 99.5918C411.265 94.3674 413.094 89.7524 416.751 85.7469C420.234 81.9157 424.936 80 430.857 80C437.475 80 442.612 82.4381 446.269 87.3143C449.927 92.3646 451.755 98.1986 451.755 104.816ZM504 104.816C504 111.608 502.955 117.442 500.865 122.318C498.776 127.369 496.076 131.461 492.767 134.596C489.459 137.905 485.714 140.256 481.535 141.649C477.181 143.216 472.914 144 468.735 144L468.735 134.857C473.263 134.857 477.529 133.29 481.535 130.155C485.366 127.195 487.63 123.102 488.327 117.878C487.804 118.052 487.195 118.226 486.498 118.4C485.976 118.574 485.366 118.748 484.669 118.922C483.799 119.097 482.841 119.184 481.796 119.184C476.571 119.184 472.218 117.181 468.735 113.176C465.252 109.344 463.51 104.816 463.51 99.5918C463.51 94.3674 465.339 89.7524 468.996 85.7469C472.479 81.9156 477.181 80 483.102 80C489.72 80 494.857 82.4381 498.514 87.3143C502.171 92.3646 504 98.1986 504 104.816Z" fill="url(#paint0_linear_3_8)"/>
<path d="M52.2449 39.1837C52.2449 32.3918 53.2898 26.5578 55.3796 21.6816C57.4694 16.6313 60.1687 12.5388 63.4776 9.40409C66.7864 6.09524 70.5306 3.74422 74.7102 2.35102C79.064 0.783674 83.3306 0 87.5102 0V9.14286C82.9823 9.14286 78.7157 10.7102 74.7102 13.8449C70.8789 16.8054 68.615 20.898 67.9184 26.1225C68.4408 25.9483 69.0503 25.7742 69.7469 25.6C70.2694 25.4258 70.8789 25.2517 71.5755 25.0776C72.4463 24.9034 73.4041 24.8163 74.449 24.8163C79.6735 24.8163 84.0272 26.8191 87.5102 30.8245C90.9932 34.6558 92.7347 39.1837 92.7347 44.4082C92.7347 49.6327 90.9061 54.2476 87.249 58.2531C83.766 62.0844 79.0639 64 73.1429 64C66.5252 64 61.3878 61.5619 57.7306 56.6857C54.0735 51.6354 52.2449 45.8014 52.2449 39.1837ZM0 39.1837C0 32.3918 1.0449 26.5578 3.13469 21.6816C5.22449 16.6313 7.92381 12.5388 11.2327 9.40409C14.5415 6.09524 18.2857 3.74422 22.4653 2.35102C26.819 0.783674 31.0857 0 35.2653 0V9.14286C30.7374 9.14286 26.4707 10.7102 22.4653 13.8449C18.634 16.8054 16.3701 20.898 15.6735 26.1225C16.1959 25.9483 16.8054 25.7742 17.502 25.6C18.0245 25.4258 18.634 25.2517 19.3306 25.0776C20.2014 24.9034 21.1592 24.8163 22.2041 24.8163C27.4286 24.8163 31.7823 26.8191 35.2653 30.8245C38.7483 34.6558 40.4898 39.1837 40.4898 44.4082C40.4898 49.6327 38.6612 54.2476 35.0041 58.2531C31.5211 62.0844 26.819 64 20.898 64C14.2803 64 9.14286 61.5619 5.48571 56.6857C1.82857 51.6354 0 45.8014 0 39.1837Z" fill="url(#paint1_linear_3_8)"/>
<defs>
<linearGradient id="paint0_linear_3_8" x1="457.633" y1="144" x2="457.633" y2="80" gradientUnits="userSpaceOnUse">
<stop stop-color="#333F51"/>
<stop offset="1" stop-color="#333F51" stop-opacity="0"/>
</linearGradient>
<linearGradient id="paint1_linear_3_8" x1="46.3673" y1="0" x2="46.3673" y2="64" gradientUnits="userSpaceOnUse">
<stop stop-color="#333F51"/>
<stop offset="1" stop-color="#333F51" stop-opacity="0"/>
</linearGradient>
</defs>
</svg>
