<svg width="328" height="40" viewBox="0 0 328 40" fill="none" xmlns="http://www.w3.org/2000/svg">
<path d="M1.35916 3.3561C0.61014 3.00217 0.289857 2.10806 0.643785 1.35904C0.997713 0.610023 1.89183 0.289742 2.64084 0.643669L1.35916 3.3561ZM328 1.99989L318.082 16.1993L310.744 0.510002L328 1.99989ZM2.64084 0.643669C3.54307 1.07 4.44724 1.49287 5.35333 1.9123L4.09312 4.63477C3.17985 4.21203 2.26853 3.7858 1.35916 3.3561L2.64084 0.643669ZM10.8092 4.38556C12.6332 5.19509 14.4647 5.9907 16.3037 6.77224L15.1302 9.53323C13.2767 8.74549 11.4307 7.94357 9.59221 7.12763L10.8092 4.38556ZM21.8349 9.07148C23.6832 9.82271 25.5388 10.5598 27.4015 11.2827L26.3162 14.0795C24.4387 13.3509 22.5684 12.6079 20.7053 11.8507L21.8349 9.07148ZM33.0027 13.4055C34.8739 14.0977 36.752 14.7757 38.6369 15.4392L37.6408 18.269C35.7409 17.6002 33.8478 16.9169 31.9618 16.2191L33.0027 13.4055ZM44.3029 17.3834C46.1951 18.016 48.0939 18.6341 49.9992 19.2376L49.0933 22.0975C47.1729 21.4892 45.259 20.8662 43.3518 20.2287L44.3029 17.3834ZM55.7239 21.001C57.6348 21.573 59.552 22.1305 61.4753 22.6732L60.6606 25.5604C58.722 25.0134 56.7896 24.4515 54.8635 23.8749L55.7239 21.001ZM67.2527 24.254C69.1808 24.7651 71.1148 25.2615 73.0547 25.743L72.332 28.6546C70.3767 28.1693 68.4273 27.669 66.484 27.1538L67.2527 24.254ZM78.8798 27.1399C80.823 27.5896 82.772 28.0245 84.7265 28.4443L84.0964 31.3774C82.1264 30.9542 80.162 30.5159 78.2033 30.0626L78.8798 27.1399ZM90.5934 29.656C92.5495 30.0439 94.511 30.4168 96.4778 30.7746L95.9409 33.7261C93.9585 33.3655 91.9815 32.9897 90.0098 32.5987L90.5934 29.656ZM102.379 31.7999C104.346 32.1258 106.319 32.4365 108.296 32.732L107.852 35.6991C105.86 35.4012 103.872 35.088 101.889 34.7596L102.379 31.7999ZM114.227 33.5707C116.203 33.8343 118.185 34.0828 120.171 34.3159L119.821 37.2955C117.819 37.0605 115.822 36.8101 113.83 36.5444L114.227 33.5707ZM126.126 34.9677C128.11 35.169 130.098 35.3552 132.091 35.5259L131.835 38.515C129.826 38.3429 127.822 38.1553 125.823 37.9523L126.126 34.9677ZM138.064 35.9907C140.052 36.1299 142.045 36.2537 144.042 36.3621L143.879 39.3577C141.867 39.2484 139.858 39.1236 137.854 38.9834L138.064 35.9907ZM150.025 36.6403C152.017 36.7175 154.013 36.7792 156.013 36.8256L155.943 39.8248C153.928 39.7781 151.917 39.7158 149.909 39.6381L150.025 36.6403ZM162.002 36.9181C163.001 36.9258 164 36.9297 165 36.9297V39.9297C163.992 39.9297 162.985 39.9258 161.979 39.918L162.002 36.9181ZM165 36.9297C166 36.9297 166.999 36.9258 167.998 36.9181L168.021 39.918C167.015 39.9258 166.008 39.9297 165 39.9297V36.9297ZM173.987 36.8256C175.987 36.7792 177.983 36.7175 179.975 36.6403L180.091 39.6381C178.083 39.7158 176.072 39.7781 174.057 39.8248L173.987 36.8256ZM185.958 36.3621C187.955 36.2537 189.948 36.1299 191.936 35.9907L192.146 38.9834C190.142 39.1236 188.133 39.2484 186.121 39.3577L185.958 36.3621ZM197.909 35.5259C199.902 35.3552 201.89 35.1691 203.874 34.9677L204.177 37.9523C202.178 38.1553 200.174 38.3429 198.165 38.515L197.909 35.5259ZM209.829 34.3159C211.815 34.0828 213.796 33.8343 215.773 33.5707L216.17 36.5444C214.178 36.8101 212.181 37.0605 210.179 37.2955L209.829 34.3159ZM221.704 32.732C223.681 32.4365 225.654 32.1258 227.621 31.7999L228.111 34.7596C226.128 35.088 224.14 35.4012 222.148 35.6991L221.704 32.732ZM233.522 30.7746C235.489 30.4168 237.451 30.0439 239.407 29.656L239.99 32.5987C238.019 32.9897 236.041 33.3655 234.059 33.7261L233.522 30.7746ZM245.274 28.4443C247.228 28.0245 249.177 27.5896 251.12 27.1399L251.797 30.0626C249.838 30.5159 247.874 30.9542 245.904 31.3774L245.274 28.4443ZM256.945 25.743C258.885 25.2615 260.819 24.7651 262.747 24.254L263.516 27.1538C261.573 27.669 259.623 28.1693 257.668 28.6546L256.945 25.743ZM268.525 22.6732C270.448 22.1305 272.365 21.573 274.276 21.001L275.136 23.8749C273.21 24.4515 271.278 25.0134 269.339 25.5604L268.525 22.6732ZM280.001 19.2376C281.906 18.6341 283.805 18.016 285.697 17.3834L286.648 20.2287C284.741 20.8662 282.827 21.4892 280.907 22.0975L280.001 19.2376ZM291.363 15.4392C293.248 14.7757 295.126 14.0977 296.997 13.4055L298.038 16.2191C296.152 16.9169 294.259 17.6002 292.359 18.269L291.363 15.4392ZM302.598 11.2827C304.461 10.5598 306.317 9.82272 308.165 9.07149L309.295 11.8507C307.432 12.6079 305.561 13.3509 303.684 14.0795L302.598 11.2827ZM313.696 6.77225C315.535 5.9907 317.367 5.1951 319.191 4.38557L320.408 7.12764C318.569 7.94358 316.723 8.74549 314.87 9.53324L313.696 6.77225ZM1.35916 3.3561C0.61014 3.00217 0.289857 2.10806 0.643785 1.35904C0.997713 0.610023 1.89183 0.289742 2.64084 0.643669L1.35916 3.3561ZM328 1.99989L318.082 16.1993L310.744 0.510002L328 1.99989ZM2.64084 0.643669C3.54307 1.07 4.44724 1.49287 5.35333 1.9123L4.09312 4.63477C3.17985 4.21203 2.26853 3.7858 1.35916 3.3561L2.64084 0.643669ZM10.8092 4.38556C12.6332 5.19509 14.4647 5.9907 16.3037 6.77224L15.1302 9.53323C13.2767 8.74549 11.4307 7.94357 9.59221 7.12763L10.8092 4.38556ZM21.8349 9.07148C23.6832 9.82271 25.5388 10.5598 27.4015 11.2827L26.3162 14.0795C24.4387 13.3509 22.5684 12.6079 20.7053 11.8507L21.8349 9.07148ZM33.0027 13.4055C34.8739 14.0977 36.752 14.7757 38.6369 15.4392L37.6408 18.269C35.7409 17.6002 33.8478 16.9169 31.9618 16.2191L33.0027 13.4055ZM44.3029 17.3834C46.1951 18.016 48.0939 18.6341 49.9992 19.2376L49.0933 22.0975C47.1729 21.4892 45.259 20.8662 43.3518 20.2287L44.3029 17.3834ZM55.7239 21.001C57.6348 21.573 59.552 22.1305 61.4753 22.6732L60.6606 25.5604C58.722 25.0134 56.7896 24.4515 54.8635 23.8749L55.7239 21.001ZM67.2527 24.254C69.1808 24.7651 71.1148 25.2615 73.0547 25.743L72.332 28.6546C70.3767 28.1693 68.4273 27.669 66.484 27.1538L67.2527 24.254ZM78.8798 27.1399C80.823 27.5896 82.772 28.0245 84.7265 28.4443L84.0964 31.3774C82.1264 30.9542 80.162 30.5159 78.2033 30.0626L78.8798 27.1399ZM90.5934 29.656C92.5495 30.0439 94.511 30.4168 96.4778 30.7746L95.9409 33.7261C93.9585 33.3655 91.9815 32.9897 90.0098 32.5987L90.5934 29.656ZM102.379 31.7999C104.346 32.1258 106.319 32.4365 108.296 32.732L107.852 35.6991C105.86 35.4012 103.872 35.088 101.889 34.7596L102.379 31.7999ZM114.227 33.5707C116.203 33.8343 118.185 34.0828 120.171 34.3159L119.821 37.2955C117.819 37.0605 115.822 36.8101 113.83 36.5444L114.227 33.5707ZM126.126 34.9677C128.11 35.169 130.098 35.3552 132.091 35.5259L131.835 38.515C129.826 38.3429 127.822 38.1553 125.823 37.9523L126.126 34.9677ZM138.064 35.9907C140.052 36.1299 142.045 36.2537 144.042 36.3621L143.879 39.3577C141.867 39.2484 139.858 39.1236 137.854 38.9834L138.064 35.9907ZM150.025 36.6403C152.017 36.7175 154.013 36.7792 156.013 36.8256L155.943 39.8248C153.928 39.7781 151.917 39.7158 149.909 39.6381L150.025 36.6403ZM162.002 36.9181C163.001 36.9258 164 36.9297 165 36.9297V39.9297C163.992 39.9297 162.985 39.9258 161.979 39.918L162.002 36.9181ZM165 36.9297C166 36.9297 166.999 36.9258 167.998 36.9181L168.021 39.918C167.015 39.9258 166.008 39.9297 165 39.9297V36.9297ZM173.987 36.8256C175.987 36.7792 177.983 36.7175 179.975 36.6403L180.091 39.6381C178.083 39.7158 176.072 39.7781 174.057 39.8248L173.987 36.8256ZM185.958 36.3621C187.955 36.2537 189.948 36.1299 191.936 35.9907L192.146 38.9834C190.142 39.1236 188.133 39.2484 186.121 39.3577L185.958 36.3621ZM197.909 35.5259C199.902 35.3552 201.89 35.1691 203.874 34.9677L204.177 37.9523C202.178 38.1553 200.174 38.3429 198.165 38.515L197.909 35.5259ZM209.829 34.3159C211.815 34.0828 213.796 33.8343 215.773 33.5707L216.17 36.5444C214.178 36.8101 212.181 37.0605 210.179 37.2955L209.829 34.3159ZM221.704 32.732C223.681 32.4365 225.654 32.1258 227.621 31.7999L228.111 34.7596C226.128 35.088 224.14 35.4012 222.148 35.6991L221.704 32.732ZM233.522 30.7746C235.489 30.4168 237.451 30.0439 239.407 29.656L239.99 32.5987C238.019 32.9897 236.041 33.3655 234.059 33.7261L233.522 30.7746ZM245.274 28.4443C247.228 28.0245 249.177 27.5896 251.12 27.1399L251.797 30.0626C249.838 30.5159 247.874 30.9542 245.904 31.3774L245.274 28.4443ZM256.945 25.743C258.885 25.2615 260.819 24.7651 262.747 24.254L263.516 27.1538C261.573 27.669 259.623 28.1693 257.668 28.6546L256.945 25.743ZM268.525 22.6732C270.448 22.1305 272.365 21.573 274.276 21.001L275.136 23.8749C273.21 24.4515 271.278 25.0134 269.339 25.5604L268.525 22.6732ZM280.001 19.2376C281.906 18.6341 283.805 18.016 285.697 17.3834L286.648 20.2287C284.741 20.8662 282.827 21.4892 280.907 22.0975L280.001 19.2376ZM291.363 15.4392C293.248 14.7757 295.126 14.0977 296.997 13.4055L298.038 16.2191C296.152 16.9169 294.259 17.6002 292.359 18.269L291.363 15.4392ZM302.598 11.2827C304.461 10.5598 306.317 9.82272 308.165 9.07149L309.295 11.8507C307.432 12.6079 305.561 13.3509 303.684 14.0795L302.598 11.2827ZM313.696 6.77225C315.535 5.9907 317.367 5.1951 319.191 4.38557L320.408 7.12764C318.569 7.94358 316.723 8.74549 314.87 9.53324L313.696 6.77225Z" fill="#AFAFAF"/>
</svg>
