<svg width="328" height="41" viewBox="0 0 328 41" fill="none" xmlns="http://www.w3.org/2000/svg">
<path d="M1.35798 37.1563C0.609267 37.5109 0.289763 38.4053 0.644343 39.154C0.998924 39.9027 1.89332 40.2222 2.64202 39.8677L1.35798 37.1563ZM328 38.512L318.094 24.3039L310.742 39.9869L328 38.512ZM2.64202 39.8677C3.54401 39.4405 4.44794 39.0168 5.35379 38.5965L4.09124 35.8751C3.17821 36.2987 2.26711 36.7258 1.35798 37.1563L2.64202 39.8677ZM10.8083 36.1183C12.6319 35.3071 14.463 34.5098 16.3015 33.7267L15.1258 30.9667C13.2727 31.756 11.4271 32.5596 9.58899 33.3772L10.8083 36.1183ZM21.8316 31.4226C23.6796 30.6698 25.5349 29.9311 27.3973 29.2067L26.3097 26.4108C24.4326 27.141 22.5626 27.8855 20.6998 28.6443L21.8316 31.4226ZM32.9975 27.0794C34.8685 26.3856 36.7464 25.7062 38.6311 25.0412L37.6328 22.2121C35.7332 22.8824 33.8404 23.5673 31.9545 24.2666L32.9975 27.0794ZM44.2964 23.0927C46.1884 22.4588 48.0871 21.8393 49.9922 21.2344L49.0844 18.3751C47.1641 18.9847 45.2504 19.6091 43.3433 20.2482L44.2964 23.0927ZM55.7165 19.467C57.6273 18.8937 59.5444 18.3349 61.4676 17.791L60.6512 14.9042C58.7126 15.4525 56.7803 16.0157 54.8543 16.5936L55.7165 19.467ZM67.2449 16.2065C69.1729 15.6942 71.1069 15.1966 73.0468 14.714L72.3225 11.8028C70.3672 12.2892 68.4178 12.7907 66.4744 13.3072L67.2449 16.2065ZM78.8719 13.3138C80.8151 12.863 82.7641 12.4271 84.7187 12.0063L84.0872 9.0735C82.1171 9.49769 80.1526 9.93705 78.1939 10.3915L78.8719 13.3138ZM90.5858 10.7917C92.542 10.4028 94.5036 10.029 96.4705 9.6704L95.9323 6.71906C93.9499 7.08054 91.9727 7.4573 90.0009 7.84922L90.5858 10.7917ZM102.372 8.64253C104.339 8.3159 106.312 8.0044 108.289 7.70816L107.845 4.74127C105.852 5.03986 103.864 5.35382 101.881 5.68304L102.372 8.64253ZM114.221 6.86739C116.198 6.6031 118.179 6.35403 120.165 6.1203L119.815 3.14086C117.813 3.37644 115.816 3.62747 113.823 3.89385L114.221 6.86739ZM126.121 5.46694C128.105 5.26507 130.094 5.07848 132.087 4.90729L131.83 1.91829C129.821 2.09083 127.817 2.27889 125.817 2.48235L126.121 5.46694ZM138.06 4.44131C140.049 4.30185 142.042 4.1777 144.039 4.069L143.876 1.07343C141.863 1.18299 139.855 1.3081 137.85 1.44866L138.06 4.44131ZM150.023 3.79007C152.016 3.71277 154.012 3.65082 156.012 3.60434L155.942 0.605154C153.926 0.651994 151.915 0.714423 149.907 0.792328L150.023 3.79007ZM162.002 3.51159C163 3.50387 164 3.5 165 3.5V0.5C163.992 0.5 162.985 0.503899 161.979 0.511683L162.002 3.51159ZM165 3.5C166 3.5 167 3.50387 167.998 3.51159L168.021 0.511683C167.015 0.503899 166.008 0.5 165 0.5V3.5ZM173.988 3.60435C175.988 3.65082 177.984 3.71277 179.977 3.79007L180.093 0.792329C178.085 0.714424 176.074 0.651994 174.058 0.605155L173.988 3.60435ZM185.961 4.069C187.958 4.17771 189.951 4.30185 191.94 4.44131L192.15 1.44866C190.145 1.3081 188.137 1.18299 186.124 1.07344L185.961 4.069ZM197.913 4.90729C199.906 5.07848 201.895 5.26507 203.879 5.46694L204.183 2.48235C202.183 2.27889 200.179 2.09083 198.17 1.91829L197.913 4.90729ZM209.835 6.1203C211.821 6.35403 213.802 6.6031 215.779 6.86739L216.177 3.89385C214.184 3.62747 212.187 3.37644 210.185 3.14086L209.835 6.1203ZM221.711 7.70816C223.688 8.0044 225.661 8.3159 227.628 8.64253L228.119 5.68304C226.136 5.35382 224.148 5.03986 222.155 4.74127L221.711 7.70816ZM233.53 9.6704C235.496 10.029 237.458 10.4028 239.414 10.7917L239.999 7.84922C238.027 7.4573 236.05 7.08054 234.068 6.71906L233.53 9.6704ZM245.281 12.0063C247.236 12.4271 249.185 12.863 251.128 13.3138L251.806 10.3915C249.847 9.93705 247.883 9.49769 245.913 9.0735L245.281 12.0063ZM256.953 14.714C258.893 15.1967 260.827 15.6942 262.755 16.2065L263.526 13.3072C261.582 12.7907 259.633 12.2892 257.678 11.8028L256.953 14.714ZM268.532 17.791C270.456 18.3349 272.373 18.8937 274.284 19.467L275.146 16.5936C273.22 16.0157 271.287 15.4525 269.349 14.9042L268.532 17.791ZM280.008 21.2344C281.913 21.8393 283.812 22.4588 285.704 23.0927L286.657 20.2482C284.75 19.6091 282.836 18.9847 280.916 18.3751L280.008 21.2344ZM291.369 25.0412C293.254 25.7062 295.131 26.3856 297.002 27.0794L298.045 24.2666C296.16 23.5673 294.267 22.8824 292.367 22.2121L291.369 25.0412ZM302.603 29.2067C304.465 29.9311 306.32 30.6698 308.168 31.4226L309.3 28.6443C307.437 27.8855 305.567 27.141 303.69 26.4108L302.603 29.2067ZM313.699 33.7267C315.537 34.5098 317.368 35.3071 319.192 36.1183L320.411 33.3772C318.573 32.5596 316.727 31.756 314.874 30.9667L313.699 33.7267ZM1.35798 37.1563C0.609267 37.5109 0.289763 38.4053 0.644343 39.154C0.998924 39.9027 1.89332 40.2222 2.64202 39.8677L1.35798 37.1563ZM328 38.512L318.094 24.3039L310.742 39.9869L328 38.512ZM2.64202 39.8677C3.54401 39.4405 4.44794 39.0168 5.35379 38.5965L4.09124 35.8751C3.17821 36.2987 2.26711 36.7258 1.35798 37.1563L2.64202 39.8677ZM10.8083 36.1183C12.6319 35.3071 14.463 34.5098 16.3015 33.7267L15.1258 30.9667C13.2727 31.756 11.4271 32.5596 9.58899 33.3772L10.8083 36.1183ZM21.8316 31.4226C23.6796 30.6698 25.5349 29.9311 27.3973 29.2067L26.3097 26.4108C24.4326 27.141 22.5626 27.8855 20.6998 28.6443L21.8316 31.4226ZM32.9975 27.0794C34.8685 26.3856 36.7464 25.7062 38.6311 25.0412L37.6328 22.2121C35.7332 22.8824 33.8404 23.5673 31.9545 24.2666L32.9975 27.0794ZM44.2964 23.0927C46.1884 22.4588 48.0871 21.8393 49.9922 21.2344L49.0844 18.3751C47.1641 18.9847 45.2504 19.6091 43.3433 20.2482L44.2964 23.0927ZM55.7165 19.467C57.6273 18.8937 59.5444 18.3349 61.4676 17.791L60.6512 14.9042C58.7126 15.4525 56.7803 16.0157 54.8543 16.5936L55.7165 19.467ZM67.2449 16.2065C69.1729 15.6942 71.1069 15.1966 73.0468 14.714L72.3225 11.8028C70.3672 12.2892 68.4178 12.7907 66.4744 13.3072L67.2449 16.2065ZM78.8719 13.3138C80.8151 12.863 82.7641 12.4271 84.7187 12.0063L84.0872 9.0735C82.1171 9.49769 80.1526 9.93705 78.1939 10.3915L78.8719 13.3138ZM90.5858 10.7917C92.542 10.4028 94.5036 10.029 96.4705 9.6704L95.9323 6.71906C93.9499 7.08054 91.9727 7.4573 90.0009 7.84922L90.5858 10.7917ZM102.372 8.64253C104.339 8.3159 106.312 8.0044 108.289 7.70816L107.845 4.74127C105.852 5.03986 103.864 5.35382 101.881 5.68304L102.372 8.64253ZM114.221 6.86739C116.198 6.6031 118.179 6.35403 120.165 6.1203L119.815 3.14086C117.813 3.37644 115.816 3.62747 113.823 3.89385L114.221 6.86739ZM126.121 5.46694C128.105 5.26507 130.094 5.07848 132.087 4.90729L131.83 1.91829C129.821 2.09083 127.817 2.27889 125.817 2.48235L126.121 5.46694ZM138.06 4.44131C140.049 4.30185 142.042 4.1777 144.039 4.069L143.876 1.07343C141.863 1.18299 139.855 1.3081 137.85 1.44866L138.06 4.44131ZM150.023 3.79007C152.016 3.71277 154.012 3.65082 156.012 3.60434L155.942 0.605154C153.926 0.651994 151.915 0.714423 149.907 0.792328L150.023 3.79007ZM162.002 3.51159C163 3.50387 164 3.5 165 3.5V0.5C163.992 0.5 162.985 0.503899 161.979 0.511683L162.002 3.51159ZM165 3.5C166 3.5 167 3.50387 167.998 3.51159L168.021 0.511683C167.015 0.503899 166.008 0.5 165 0.5V3.5ZM173.988 3.60435C175.988 3.65082 177.984 3.71277 179.977 3.79007L180.093 0.792329C178.085 0.714424 176.074 0.651994 174.058 0.605155L173.988 3.60435ZM185.961 4.069C187.958 4.17771 189.951 4.30185 191.94 4.44131L192.15 1.44866C190.145 1.3081 188.137 1.18299 186.124 1.07344L185.961 4.069ZM197.913 4.90729C199.906 5.07848 201.895 5.26507 203.879 5.46694L204.183 2.48235C202.183 2.27889 200.179 2.09083 198.17 1.91829L197.913 4.90729ZM209.835 6.1203C211.821 6.35403 213.802 6.6031 215.779 6.86739L216.177 3.89385C214.184 3.62747 212.187 3.37644 210.185 3.14086L209.835 6.1203ZM221.711 7.70816C223.688 8.0044 225.661 8.3159 227.628 8.64253L228.119 5.68304C226.136 5.35382 224.148 5.03986 222.155 4.74127L221.711 7.70816ZM233.53 9.6704C235.496 10.029 237.458 10.4028 239.414 10.7917L239.999 7.84922C238.027 7.4573 236.05 7.08054 234.068 6.71906L233.53 9.6704ZM245.281 12.0063C247.236 12.4271 249.185 12.863 251.128 13.3138L251.806 10.3915C249.847 9.93705 247.883 9.49769 245.913 9.0735L245.281 12.0063ZM256.953 14.714C258.893 15.1967 260.827 15.6942 262.755 16.2065L263.526 13.3072C261.582 12.7907 259.633 12.2892 257.678 11.8028L256.953 14.714ZM268.532 17.791C270.456 18.3349 272.373 18.8937 274.284 19.467L275.146 16.5936C273.22 16.0157 271.287 15.4525 269.349 14.9042L268.532 17.791ZM280.008 21.2344C281.913 21.8393 283.812 22.4588 285.704 23.0927L286.657 20.2482C284.75 19.6091 282.836 18.9847 280.916 18.3751L280.008 21.2344ZM291.369 25.0412C293.254 25.7062 295.131 26.3856 297.002 27.0794L298.045 24.2666C296.16 23.5673 294.267 22.8824 292.367 22.2121L291.369 25.0412ZM302.603 29.2067C304.465 29.9311 306.32 30.6698 308.168 31.4226L309.3 28.6443C307.437 27.8855 305.567 27.141 303.69 26.4108L302.603 29.2067ZM313.699 33.7267C315.537 34.5098 317.368 35.3071 319.192 36.1183L320.411 33.3772C318.573 32.5596 316.727 31.756 314.874 30.9667L313.699 33.7267Z" fill="#AFAFAF"/>
</svg>
